<svg width="1000" height="1000" viewBox="0 0 1000 1000" fill="none" xmlns="http://www.w3.org/2000/svg">
<rect width="1000" height="1000" rx="100" fill="#404040"/>
<rect x="62" y="259" width="62" height="125" rx="5" fill="white"/>
<rect x="62" y="71" width="62" height="125" rx="5" fill="white"/>
<rect x="62" y="635" width="62" height="125" rx="5" fill="white"/>
<rect x="62" y="823" width="62" height="125" rx="5" fill="white"/>
<rect x="62" y="447" width="62" height="125" rx="5" fill="white"/>
<rect x="876" y="259" width="62" height="125" rx="5" fill="white"/>
<rect x="876" y="71" width="62" height="125" rx="5" fill="white"/>
<rect x="876" y="635" width="62" height="125" rx="5" fill="white"/>
<rect x="876" y="823" width="62" height="125" rx="5" fill="white"/>
<rect x="876" y="447" width="62" height="125" rx="5" fill="white"/>
<rect x="776.255" y="63" width="60" height="1050" rx="10" transform="rotate(35 776.255 63)" fill="white"/>
<rect x="174" y="97.4146" width="60" height="1050" rx="10" transform="rotate(-35 174 97.4146)" fill="white"/>
</svg>
